<svg width="209" height="34" viewBox="0 0 209 34" fill="none" xmlns="http://www.w3.org/2000/svg">
<path fill-rule="evenodd" clip-rule="evenodd" d="M3.57184 16.6878C2.76528 17.4945 1.45706 17.494 0.653483 16.6903C-0.151801 15.8849 -0.154356 14.5816 0.655612 13.7714L3.55225 10.8747C4.35881 10.068 5.66702 10.0684 6.4706 10.8722C7.27546 11.6776 7.27801 12.9809 6.46804 13.791L3.57184 16.6878Z" fill="white"/>
<path fill-rule="evenodd" clip-rule="evenodd" d="M10.9906 3.58326C10.1958 2.77655 10.1966 1.46768 10.9885 0.663959C11.7817 -0.141041 13.0664 -0.143596 13.8646 0.666515L16.7188 3.56324C17.5137 4.36994 17.5133 5.67838 16.7209 6.48211C15.9277 7.28753 14.6435 7.29009 13.8449 6.47998L10.9906 3.58326Z" fill="white"/>
<path fill-rule="evenodd" clip-rule="evenodd" d="M4.65068 8.51231C3.52678 8.51231 2.61523 7.57946 2.61523 6.43368C2.61523 5.28575 3.52174 4.35547 4.65068 4.35547H8.68757C9.81146 4.35547 10.7226 5.28832 10.7226 6.43368C10.7226 7.58203 9.8165 8.51231 8.68757 8.51231H4.65068Z" fill="white"/>
<path fill-rule="evenodd" clip-rule="evenodd" d="M8.5081 22.9936C8.5081 24.1318 7.57498 25.0549 6.42983 25.0549C5.2821 25.0549 4.35156 24.1369 4.35156 22.9936V18.9056C4.35156 17.7674 5.28425 16.8447 6.42983 16.8447C7.57756 16.8447 8.5081 17.7623 8.5081 18.9056V22.9936Z" fill="white"/>
<path fill-rule="evenodd" clip-rule="evenodd" d="M16.7005 23.9845C17.5071 24.7912 17.5066 26.0997 16.7031 26.9034C15.8978 27.7088 14.5947 27.7109 13.7847 26.9008L10.8881 24.0041C10.0815 23.1974 10.0824 21.889 10.8859 21.0852C11.6912 20.2798 12.9943 20.2772 13.8043 21.0874L16.7005 23.9845Z" fill="white"/>
<path fill-rule="evenodd" clip-rule="evenodd" d="M23.0228 19.0537C24.1608 19.0537 25.0837 19.9866 25.0837 21.1323C25.0837 22.2803 24.1659 23.211 23.0228 23.211H18.9359C17.7975 23.211 16.875 22.2781 16.875 21.1323C16.875 19.9844 17.7928 19.0537 18.9359 19.0537H23.0228Z" fill="white"/>
<path fill-rule="evenodd" clip-rule="evenodd" d="M24.0225 10.9783C24.8291 10.1832 26.1373 10.1837 26.9409 10.9757C27.7462 11.7695 27.7487 13.0539 26.9387 13.8523L24.0425 16.7075C23.236 17.5025 21.9278 17.5016 21.1242 16.7096C20.3189 15.9158 20.3163 14.6314 21.1263 13.833L24.0225 10.9783Z" fill="white"/>
<path fill-rule="evenodd" clip-rule="evenodd" d="M19.0859 4.65452C19.0859 3.53042 20.0186 2.61914 21.1638 2.61914C22.3119 2.61914 23.242 3.52539 23.242 4.65452V8.69213C23.242 9.81623 22.3094 10.7279 21.1638 10.7279C20.0161 10.7279 19.0859 9.82126 19.0859 8.69213V4.65452Z" fill="white"/>
<path fill-rule="evenodd" clip-rule="evenodd" d="M208.863 0.0166016V25.7038H204.779V0.0166016H208.863ZM154.594 0.0166016V11.6618H154.662C154.821 11.3218 155.054 10.9877 155.36 10.659C155.666 10.3299 156.024 10.0357 156.432 9.7746C156.84 9.51394 157.306 9.30448 157.827 9.14581C158.35 8.98715 158.916 8.90781 159.529 8.90781C160.595 8.90781 161.509 9.0946 162.269 9.46902C163.029 9.84302 163.653 10.3358 164.141 10.9478C164.629 11.5598 164.986 12.2625 165.213 13.0558C165.44 13.8491 165.554 14.6651 165.554 15.5038V25.7038H161.469V16.7278C161.469 16.2518 161.435 15.759 161.367 15.2486C161.299 14.7386 161.157 14.2744 160.942 13.8546C160.726 13.4353 160.42 13.0898 160.023 12.8178C159.626 12.5458 159.098 12.4098 158.44 12.4098C157.782 12.4098 157.215 12.5345 156.738 12.7838C156.262 13.0331 155.865 13.3673 155.547 13.7866C155.229 14.2064 154.991 14.6765 154.832 15.1978C154.673 15.7191 154.594 16.2518 154.594 16.7958V25.7038H150.51V0.0166016H154.594ZM98.3601 0.0166016V11.6618H98.4282C98.5871 11.3218 98.8198 10.9877 99.1262 10.659C99.432 10.3299 99.7896 10.0357 100.198 9.7746C100.606 9.51394 101.072 9.30448 101.593 9.14581C102.115 8.98715 102.683 8.90781 103.295 8.90781C104.362 8.90781 105.275 9.0946 106.035 9.46902C106.795 9.84302 107.419 10.3358 107.907 10.9478C108.395 11.5598 108.752 12.2625 108.979 13.0558C109.206 13.8491 109.319 14.6651 109.319 15.5038V25.7038H105.235V16.7278C105.235 16.2518 105.201 15.759 105.133 15.2486C105.065 14.7386 104.923 14.2744 104.708 13.8546C104.492 13.4353 104.186 13.0898 103.789 12.8178C103.391 12.5458 102.864 12.4098 102.206 12.4098C101.548 12.4098 100.981 12.5345 100.504 12.7838C100.028 13.0331 99.6308 13.3673 99.3131 13.7866C98.9955 14.2064 98.7572 14.6765 98.5984 15.1978C98.4396 15.7191 98.3601 16.2518 98.3601 16.7958V25.7038H94.2759V0.0166016H98.3601ZM39.967 0.0166016V11.4578H40.0691C40.2734 11.1858 40.5343 10.9025 40.852 10.6078C41.1696 10.3131 41.5495 10.0411 41.9923 9.79181C42.4344 9.54248 42.9508 9.33302 43.5407 9.1626C44.1307 8.9926 44.8 8.90781 45.5488 8.90781C46.706 8.90781 47.7725 9.1286 48.7481 9.5706C49.7238 10.013 50.5633 10.6191 51.2667 11.3898C51.9701 12.1605 52.5147 13.0671 52.9004 14.1098C53.2862 15.1525 53.479 16.2745 53.479 17.4758C53.479 18.6771 53.2916 19.8046 52.9172 20.859C52.5428 21.913 52.01 22.8306 51.3176 23.613C50.6255 24.395 49.7864 25.0179 48.7994 25.4826C47.8119 25.9477 46.6947 26.1798 45.4467 26.1798C44.2895 26.1798 43.2063 25.9305 42.1961 25.4318C41.1864 24.9331 40.3982 24.2078 39.8309 23.2558H39.7628V25.7038H35.8828V0.0166016H39.967ZM49.3267 17.4758C49.3267 16.8411 49.2305 16.2124 49.0376 15.5886C48.8444 14.9657 48.5553 14.4045 48.1695 13.9058C47.7838 13.4071 47.296 13.005 46.706 12.699C46.1161 12.3926 45.424 12.2398 44.6299 12.2398C43.8811 12.2398 43.2117 12.3985 42.6218 12.7158C42.0318 13.0331 41.5268 13.4411 41.107 13.9398C40.6872 14.4385 40.3696 15.0051 40.154 15.6398C39.9385 16.2745 39.8309 16.9091 39.8309 17.5438C39.8309 18.1785 39.9385 18.8073 40.154 19.431C40.3696 20.0544 40.6872 20.6151 41.107 21.1138C41.5268 21.6125 42.0318 22.0146 42.6218 22.3206C43.2117 22.627 43.8811 22.7798 44.6299 22.7798C45.424 22.7798 46.1161 22.6211 46.706 22.3038C47.296 21.9865 47.7838 21.5785 48.1695 21.0798C48.5553 20.5811 48.8444 20.0145 49.0376 19.3798C49.2305 18.7451 49.3267 18.1105 49.3267 17.4758ZM55.867 9.38381H59.781V12.1038H59.8495C60.3033 11.1518 60.9382 10.3811 61.755 9.79181C62.5723 9.20248 63.5249 8.90781 64.614 8.90781C64.7733 8.90781 64.943 8.91327 65.1245 8.9246C65.3065 8.93594 65.4649 8.96448 65.6014 9.00981V12.7498C65.3287 12.6818 65.0964 12.6365 64.9035 12.6138C64.7107 12.5911 64.5232 12.5798 64.3417 12.5798C63.4114 12.5798 62.6627 12.7498 62.0954 13.0898C61.5281 13.4298 61.0857 13.8378 60.7684 14.3138C60.4504 14.7898 60.2348 15.2771 60.1214 15.7758C60.0079 16.2745 59.9512 16.6711 59.9512 16.9658V25.7038H55.867V9.38381ZM66.7641 25.7038V9.38381H70.8483V25.7038H66.7641ZM66.1855 3.84181C66.1855 3.18448 66.4292 2.61235 66.9171 2.12502C67.4049 1.63769 68.0234 1.39381 68.7722 1.39381C69.521 1.39381 70.1504 1.62594 70.6609 2.09102C71.1715 2.55569 71.4269 3.13915 71.4269 3.84181C71.4269 4.54448 71.1715 5.12794 70.6609 5.59302C70.1504 6.05769 69.521 6.28981 68.7722 6.28981C68.0234 6.28981 67.4049 6.04636 66.9171 5.5586C66.4292 5.07169 66.1855 4.49915 66.1855 3.84181ZM90.8665 9.38381V24.2418C90.8665 25.7151 90.685 27.0466 90.3219 28.237C89.9589 29.427 89.3975 30.4353 88.6374 31.2626C87.8773 32.0904 86.9188 32.7305 85.7612 33.1838C84.604 33.6371 83.2317 33.8638 81.643 33.8638C80.985 33.8638 80.2874 33.8071 79.55 33.6938C78.8126 33.5805 78.0865 33.4105 77.3718 33.1838C76.657 32.9571 75.9708 32.6738 75.3128 32.3338C74.6544 31.9938 74.0645 31.6085 73.5426 31.1778L75.891 28.0158C76.6852 28.7638 77.5814 29.3359 78.5802 29.7326C79.5786 30.1297 80.5879 30.3278 81.6093 30.3278C82.5846 30.3278 83.4073 30.1864 84.0767 29.903C84.7461 29.6193 85.2793 29.2285 85.6764 28.7298C86.0734 28.2311 86.3571 27.6418 86.5272 26.9618C86.6974 26.2818 86.7823 25.5338 86.7823 24.7178V23.5278H86.7142C86.1243 24.3211 85.37 24.9273 84.4511 25.347C83.5321 25.7664 82.5052 25.9758 81.3711 25.9758C80.1454 25.9758 79.034 25.7491 78.0352 25.2958C77.0369 24.8425 76.1919 24.2305 75.4998 23.4598C74.8078 22.6891 74.2687 21.7884 73.8829 20.757C73.4972 19.7253 73.3043 18.6318 73.3043 17.4758C73.3043 16.2971 73.4917 15.1865 73.8661 14.1438C74.2405 13.1011 74.7737 12.1945 75.4658 11.4238C76.1578 10.6531 76.9974 10.0411 77.9844 9.58781C78.9714 9.13448 80.0773 8.90781 81.3026 8.90781C82.4598 8.90781 83.5376 9.14581 84.5364 9.62181C85.5348 10.0978 86.3285 10.8345 86.9188 11.8318H86.9869V9.38381H90.8665ZM82.1539 12.2398C81.4047 12.2398 80.7412 12.3758 80.1626 12.6478C79.584 12.9198 79.0962 13.2879 78.6991 13.753C78.3021 14.2177 77.9957 14.7671 77.7802 15.4018C77.5646 16.0365 77.4566 16.7165 77.4566 17.4418C77.4566 18.0991 77.5646 18.7338 77.7802 19.3458C77.9957 19.9578 78.3021 20.5073 78.6991 20.995C79.0962 21.4824 79.584 21.8731 80.1626 22.1678C80.7412 22.4625 81.3934 22.6098 82.1195 22.6098C82.8687 22.6098 83.5435 22.4684 84.1448 22.185C84.7461 21.9013 85.2566 21.5218 85.6764 21.0458C86.0961 20.5698 86.4192 20.0204 86.6461 19.397C86.8735 18.7733 86.9869 18.1218 86.9869 17.4418C86.9869 16.7391 86.8735 16.0705 86.6461 15.4358C86.4192 14.8011 86.0961 14.2458 85.6764 13.7698C85.2566 13.2938 84.7519 12.9198 84.1616 12.6478C83.5716 12.3758 82.9027 12.2398 82.1539 12.2398ZM110.176 12.6478V9.38381H113.035V4.65781H117.051V9.38381H121.136V12.6478H117.051V20.2298C117.051 20.9551 117.182 21.5558 117.443 22.0318C117.703 22.5078 118.288 22.7458 119.196 22.7458C119.468 22.7458 119.763 22.7177 120.08 22.6606C120.398 22.6039 120.681 22.5191 120.931 22.4058L121.067 25.6018C120.704 25.7378 120.273 25.8457 119.774 25.925C119.275 26.0039 118.798 26.0438 118.345 26.0438C117.256 26.0438 116.371 25.891 115.69 25.585C115.009 25.2786 114.47 24.8597 114.073 24.327C113.676 23.7939 113.404 23.1824 113.256 22.491C113.109 21.7993 113.035 21.0571 113.035 20.2638V12.6478H110.176ZM122.323 9.38381H126.748L130.151 21.0798H130.219L133.725 9.38381H138.081L141.621 21.0798H141.689L145.161 9.38381H149.415L143.765 25.7038H139.613L135.903 14.2798H135.835L132.159 25.7038H128.007L122.323 9.38381ZM180.262 15.9118C180.262 15.3905 180.188 14.8918 180.041 14.4158C179.893 13.9398 179.661 13.5205 179.343 13.1578C179.026 12.7951 178.623 12.5064 178.135 12.291C177.647 12.0753 177.074 11.9678 176.416 11.9678C175.191 11.9678 174.153 12.3359 173.302 13.073C172.451 13.8097 171.98 14.7558 171.89 15.9118H180.262ZM184.347 17.7478V18.2918C184.347 18.4731 184.335 18.6545 184.313 18.8358H171.89C171.935 19.4251 172.088 19.9633 172.349 20.451C172.61 20.9384 172.956 21.3577 173.387 21.7086C173.818 22.0604 174.306 22.3378 174.851 22.5418C175.395 22.7458 175.963 22.8478 176.553 22.8478C177.574 22.8478 178.436 22.661 179.139 22.287C179.843 21.9126 180.421 21.3971 180.875 20.7398L183.598 22.9158C181.987 25.0918 179.65 26.1798 176.587 26.1798C175.316 26.1798 174.147 25.9817 173.081 25.585C172.014 25.1879 171.09 24.6271 170.307 23.9018C169.524 23.1765 168.912 22.287 168.469 21.233C168.026 20.1786 167.805 18.9831 167.805 17.6458C167.805 16.3311 168.026 15.1357 168.469 14.0586C168.912 12.9819 169.519 12.0644 170.29 11.305C171.061 10.5453 171.975 9.95636 173.03 9.5366C174.085 9.11727 175.225 8.90781 176.45 8.90781C177.585 8.90781 178.634 9.0946 179.598 9.46902C180.563 9.84302 181.397 10.3979 182.1 11.1346C182.804 11.8717 183.354 12.7893 183.751 13.889C184.148 14.9884 184.347 16.2745 184.347 17.7478ZM198.238 15.9118C198.238 15.3905 198.165 14.8918 198.017 14.4158C197.87 13.9398 197.638 13.5205 197.32 13.1578C197.002 12.7951 196.599 12.5064 196.111 12.291C195.624 12.0753 195.051 11.9678 194.393 11.9678C193.167 11.9678 192.129 12.3359 191.278 13.073C190.428 13.8097 189.957 14.7558 189.866 15.9118H198.238ZM202.323 17.7478C202.323 17.9291 202.323 18.1105 202.323 18.2918C202.323 18.4731 202.312 18.6545 202.289 18.8358H189.866C189.911 19.4251 190.064 19.9633 190.325 20.451C190.586 20.9384 190.932 21.3577 191.363 21.7086C191.794 22.0604 192.283 22.3378 192.827 22.5418C193.371 22.7458 193.939 22.8478 194.529 22.8478C195.55 22.8478 196.412 22.661 197.116 22.287C197.819 21.9126 198.398 21.3971 198.851 20.7398L201.574 22.9158C199.963 25.0918 197.626 26.1798 194.563 26.1798C193.292 26.1798 192.124 25.9817 191.057 25.585C189.991 25.1879 189.066 24.6271 188.283 23.9018C187.501 23.1765 186.888 22.287 186.445 21.233C186.003 20.1786 185.782 18.9831 185.782 17.6458C185.782 16.3311 186.003 15.1357 186.445 14.0586C186.888 12.9819 187.495 12.0644 188.266 11.305C189.038 10.5453 189.951 9.95636 191.006 9.5366C192.061 9.11727 193.201 8.90781 194.427 8.90781C195.561 8.90781 196.611 9.0946 197.575 9.46902C198.539 9.84302 199.373 10.3979 200.077 11.1346C200.78 11.8717 201.33 12.7893 201.727 13.889C202.124 14.9884 202.323 16.2745 202.323 17.7478Z" fill="white"/>
</svg>
